<svg width="68" height="90" viewBox="0 0 68 90" fill="none" xmlns="http://www.w3.org/2000/svg">
<path d="M53.6988 16.9139C58.3592 16.9139 62.1372 13.1276 62.1372 8.45693C62.1372 3.7863 58.3592 0 53.6988 0C49.0384 0 45.2604 3.7863 45.2604 8.45693C45.2604 13.1276 49.0384 16.9139 53.6988 16.9139Z" fill="black"/>
<path d="M23.3974 64.5803H4.98633C2.30138 64.5803 0 66.8867 0 69.5775C0 72.2684 2.30138 74.5748 4.98633 74.5748H27.233C29.1508 74.5748 31.0687 73.4216 31.8358 71.4996L36.4385 60.7362L27.233 54.2013L23.3974 64.5803Z" fill="black"/>
<path d="M63.6716 46.8975C65.973 46.8975 67.8908 44.9755 67.8908 42.6691C67.8908 40.3626 65.973 38.4406 63.6716 38.4406H52.1647L48.7126 46.8975H63.6716Z" fill="black"/>
<path d="M61.7536 84.185L58.6851 63.0426C58.3016 61.1206 57.1509 59.1986 55.6166 58.0453L44.1097 49.9728L52.5481 29.2149C54.4659 24.602 51.0139 19.9891 46.4111 19.9891H41.8083H25.3151L16.1096 41.5159C15.3424 43.8223 16.1096 46.1287 18.411 46.8976C18.7945 47.282 19.5616 47.282 19.9452 47.282C21.4795 47.282 23.0137 46.1288 23.7808 44.5911L30.685 28.0617H37.9727L28.3836 51.5104L48.7125 65.7335L51.3974 85.7226C51.781 88.4134 54.4659 90.3355 57.1509 89.951C60.2194 89.5666 62.1372 86.8758 61.7536 84.185Z" fill="black"/>
</svg>
