<svg width="77" height="79" viewBox="0 0 77 79" fill="none" xmlns="http://www.w3.org/2000/svg">
<path d="M23.8852 60.2534V44.5788L15.3014 52.4161H4.47847C1.86603 52.4161 0 50.5501 0 47.9377C0 45.3252 1.86603 43.4592 4.47847 43.4592H11.5694L26.4976 27.7845H50.0096L64.9378 43.4592H72.0287C74.6412 43.4592 76.5072 45.3252 76.5072 47.9377C76.5072 50.5501 74.6412 52.4161 72.0287 52.4161H61.2057L52.622 44.5788V60.2534H23.8852Z" fill="#343C46"/>
<path d="M60.8327 78.1673H16.7944C12.6891 78.1673 9.70349 74.8084 9.70349 71.0764C9.70349 66.9711 13.0623 63.9855 16.7944 63.9855H61.2059C65.3111 63.9855 68.2968 67.3443 68.2968 71.0764C68.2968 74.8084 64.9379 78.1673 60.8327 78.1673Z" fill="#343C46"/>
<path d="M38.4408 24.0525C45.0365 24.0525 50.3834 18.7057 50.3834 12.1099C50.3834 5.51424 45.0365 0.167358 38.4408 0.167358C31.8451 0.167358 26.4982 5.51424 26.4982 12.1099C26.4982 18.7057 31.8451 24.0525 38.4408 24.0525Z" fill="#343C46"/>
<path d="M23.8852 60.2534V44.5788L15.3014 52.4161H4.47847C1.86603 52.4161 0 50.5501 0 47.9377C0 45.3252 1.86603 43.4592 4.47847 43.4592H11.5694L26.4976 27.7845H50.0096L64.9378 43.4592H72.0287C74.6412 43.4592 76.5072 45.3252 76.5072 47.9377C76.5072 50.5501 74.6412 52.4161 72.0287 52.4161H61.2057L52.622 44.5788V60.2534H23.8852Z" fill="black"/>
<path d="M60.8327 78.1673H16.7944C12.6891 78.1673 9.70349 74.8084 9.70349 71.0764C9.70349 66.9711 13.0623 63.9855 16.7944 63.9855H61.2059C65.3111 63.9855 68.2968 67.3443 68.2968 71.0764C68.2968 74.8084 64.9379 78.1673 60.8327 78.1673Z" fill="black"/>
<path d="M38.4408 24.0525C45.0365 24.0525 50.3834 18.7057 50.3834 12.1099C50.3834 5.51424 45.0365 0.167358 38.4408 0.167358C31.8451 0.167358 26.4982 5.51424 26.4982 12.1099C26.4982 18.7057 31.8451 24.0525 38.4408 24.0525Z" fill="black"/>
</svg>
